<svg width="129" height="129" viewBox="0 0 129 129" fill="none"
	xmlns="http://www.w3.org/2000/svg">
	<path d="M57.1873 29.5352C53.0751 31.0827 49.012 32.6118 44.9955 34.1207C44.8013 34.5215 44.6625 34.8913 44.5825 35.2351C52.0777 32.267 59.0552 29.5748 65.5105 27.1567C65.5989 27.0753 65.7185 26.8624 65.8626 26.5113C65.9116 26.3986 65.9182 26.3304 65.8869 26.3047C65.8626 26.2869 65.7864 26.3047 65.6545 26.3496C62.8459 27.4057 60.0602 28.454 57.2968 29.494L57.1873 29.5352Z" fill="white"/>
	<path d="M56.195 28.1751C56.3138 27.9228 56.5539 27.6847 56.9148 27.4591C57.2873 27.2223 57.6973 27.0636 58.1471 26.9838C58.3252 26.9543 58.4277 26.9423 58.4527 26.9541C58.4534 26.9544 58.4539 26.9547 58.4544 26.9551C58.4552 26.9559 58.4566 26.9579 58.4564 26.959C58.4563 26.9597 58.456 26.9604 58.4557 26.9612C58.4553 26.9622 58.4548 26.9634 58.4541 26.9648C58.4452 26.9838 58.3556 27.032 58.1819 27.1013C57.3425 27.4462 56.8731 27.7172 56.776 27.9232C56.6858 28.1148 56.7309 28.2537 56.9094 28.3378C57.0082 28.3843 57.1115 28.3997 57.2168 28.3815C57.2925 28.3706 57.3414 28.3668 57.3576 28.368C57.3634 28.3837 57.3719 28.395 57.3854 28.4079C57.3711 28.4244 57.3357 28.4718 57.2822 28.5499C56.9952 28.9243 56.6913 29.0356 56.3621 28.8806C56.0908 28.7528 56.0335 28.5179 56.195 28.1751Z" fill="white"/>
	<path fill-rule="evenodd" clip-rule="evenodd" d="M71.0902 60.4048C72.1732 60.4048 73.2253 59.9848 74.2465 59.1456C74.5413 58.896 74.6916 57.9933 74.6916 56.4277C74.6916 55.4766 74.4478 51.6565 73.9576 44.9614C73.47 38.2672 73.232 34.3218 73.232 33.1185C73.232 32.0288 73.0575 31.1396 72.7185 30.4315C72.7185 30.0499 73.0308 29.1105 73.6695 27.6142C73.7389 27.4321 73.8015 27.3436 73.8708 27.3436C73.9401 27.3436 74.0202 27.4447 74.1088 27.6459C74.2908 28.0333 74.71 29.0988 75.3671 30.8398C76.0443 32.6551 76.4576 33.764 76.5887 34.1706C76.6572 34.5155 76.6956 34.7535 76.6956 34.8837C76.6956 35.3856 76.2196 35.0925 75.2669 34.002C75.155 33.8458 75.0982 33.9134 75.0982 34.209C75.0982 34.2767 75.312 37.2518 75.7437 43.1444C76.1695 49.032 76.3883 52.5449 76.3883 53.678C76.3883 56.9604 75.7996 59.5473 74.6231 61.4252C73.6253 63.0025 72.4538 63.7974 71.1094 63.805V63.8208C70.6393 63.8884 70.17 63.891 69.7008 63.8208V63.805C69.2553 63.8043 68.8128 63.7535 68.373 63.6525C68.479 65.1024 68.6005 66.7576 68.7375 68.6181C69.3516 76.9462 69.6574 81.5373 69.6574 82.395C69.6574 85.0259 69.2511 87.3486 68.437 89.3655C68.2672 89.7733 68.1301 90.0666 68.0292 90.2489C67.8678 90.5057 67.7724 90.537 67.7411 90.348C67.6924 90.1549 67.7102 89.7284 67.7916 89.0705C67.8921 88.1628 67.9422 87.1107 67.9422 85.9079C67.9422 84.837 67.6106 79.6401 66.9461 70.3142C66.741 67.4317 66.5681 64.9493 66.4271 62.8677C65.9566 62.5947 65.4893 62.262 65.0247 61.8694C63.7498 60.6741 62.4707 59.4842 61.187 58.29L60.7604 57.8931C60.5783 57.737 60.4656 57.6551 60.4214 57.6551C60.3646 57.6551 60.408 57.8247 60.5591 58.162C61.0793 59.3644 61.3349 60.2219 61.3349 60.7305C61.3349 62.6468 60.7846 64.093 59.6757 65.0767C58.8808 65.7906 57.0897 66.7417 54.2899 67.9199C52.5723 68.6547 51.2847 69.23 50.4347 69.6325C48.738 70.4224 47.5665 71.0678 46.9335 71.568C45.7687 72.4756 44.0787 74.2116 41.855 76.7667C40.5343 78.294 39.1997 79.0647 37.8665 79.0647C37.4797 79.0647 37.11 79.0044 36.7572 78.8839C36.6647 79.2805 36.5734 79.677 36.4846 80.0738C36.2588 81.1203 36.146 81.891 36.146 82.3854C36.146 84.1076 36.7222 85.692 37.8748 87.1383C39.4405 89.0678 41.7019 90.0316 44.67 90.0316C47.2686 90.0316 50.0301 89.4185 52.955 88.197C55.3101 87.2197 57.4261 85.9992 59.3056 84.5275C61.0017 83.2117 61.8541 82.2726 61.8541 81.7086C61.8541 81.6151 61.5034 80.8823 60.802 79.499C59.9621 77.8694 59.3369 76.2794 58.9291 74.7381C58.7729 74.219 58.5854 73.8683 58.3721 73.6863C58.1588 73.5054 58.0527 73.3165 58.0527 73.1098C58.0527 72.9536 58.2089 72.1151 58.5228 70.5996C58.5718 70.3237 58.6411 70.1922 58.7294 70.1922C58.8234 70.1922 58.9361 70.2545 59.068 70.3919C59.4987 70.8689 60.4255 71.8079 61.8541 73.2104C62.0795 73.4428 62.1923 73.6237 62.1923 73.7556C62.1923 73.9184 62.0604 73.9932 61.7845 73.9932C61.4912 73.9932 61.0521 73.9062 60.4638 73.7243C60.5073 73.9062 60.9843 74.9013 61.8854 76.7115C62.6122 78.1832 62.9751 79.4541 62.9751 80.5195C62.9751 82.6233 62.4995 84.2203 61.5469 85.3103C60.882 86.0838 60.0788 86.8474 59.1375 87.6C59.0683 88.0634 58.7019 89.1898 58.0282 90.9918C57.2834 93.0017 56.9143 94.5915 56.9143 95.7564C56.9143 96.6515 57.1206 97.3654 57.5406 97.8981C57.9798 98.4743 58.5994 98.7691 59.3876 98.7691C60.7846 98.7691 62.1941 98.0543 63.6211 96.6398C64.0989 96.0686 64.5787 95.4993 65.0583 94.9301L65.0616 94.9261C65.486 94.4224 65.9104 93.9188 66.3332 93.4142C67.5106 92.0865 69.057 90.9033 70.9733 89.8629C72.0947 89.2492 74.042 88.3599 76.8108 87.1951V87.2051L76.8225 87.1951L79.5847 86.0235C79.1906 84.9405 78.996 83.8333 78.996 82.7119C78.996 81.0143 79.2465 79.6483 79.7475 78.6154C80.2544 77.5883 80.9191 77.0756 81.7457 77.0756C82.478 77.0756 83.1669 77.6835 83.8123 78.911C84.3877 79.994 84.6824 80.9835 84.6824 81.8669C84.6824 84.1072 84.0244 85.9492 82.7101 87.3829C83.6428 88.3482 84.7576 88.8308 86.0602 88.8308L86.066 88.835V88.8308C87.1499 88.8308 88.202 88.4108 89.2232 87.5716C89.5163 87.3203 89.6674 86.4193 89.6674 84.8537C89.6674 83.901 89.1605 76.4368 88.1519 62.4647C87.144 48.4867 86.6422 40.9082 86.6422 39.7317C86.6422 38.642 86.4493 37.7461 86.066 37.0447C86.066 36.6388 86.385 35.6978 87.0305 34.2274C87.0998 34.0453 87.1682 33.9568 87.2375 33.9568C87.3068 33.9568 87.3878 34.0453 87.4822 34.2274C87.6625 34.634 88.0892 35.6978 88.7597 37.4212C89.4545 39.2299 89.867 40.3513 90.0056 40.7838C90.0749 41.1028 90.1116 41.3408 90.1116 41.4969C90.1116 41.9929 89.629 41.6915 88.6779 40.5767C88.5652 40.4206 88.5092 40.4899 88.5092 40.7838C88.5092 40.8531 88.9852 47.473 89.9363 60.6419C90.889 73.8183 91.365 80.9709 91.365 82.1049C91.365 85.3848 90.7763 87.9716 89.5981 89.8512C88.5961 91.436 87.4196 92.231 86.066 92.231V92.2251L86.0602 92.231C84.8018 92.231 83.5176 91.679 82.2024 90.5768C81.501 89.9881 80.9499 89.356 80.555 88.6739L76.8225 90.257L76.8108 90.2512C75.0699 90.996 73.7664 91.5797 72.9089 91.9863C71.2113 92.7762 70.0415 93.42 69.4077 93.921C68.2428 94.8295 66.552 96.5646 64.3292 99.1198C63.0082 100.647 61.6739 101.418 60.3404 101.418C59.219 101.418 58.242 100.911 57.4028 99.903C56.5202 98.8509 56.081 97.5667 56.081 96.0444C56.081 93.9899 56.9092 91.3191 58.571 88.0391C57.5206 88.829 56.3166 89.6064 54.9594 90.3701C51.2885 92.4113 47.8692 93.4318 44.7014 93.4318C40.4421 93.4318 37.512 91.347 35.9028 87.1762C35.5887 86.3621 35.4325 85.3225 35.4325 84.0515C35.4325 83.2117 35.4951 82.3666 35.6322 81.502C35.8024 80.46 36.0243 79.5202 36.3001 78.6895C35.8074 78.4367 35.3503 78.0564 34.928 77.5491C34.046 76.497 33.6069 75.2128 33.6069 73.6906C33.6069 72.004 34.1645 69.9027 35.2838 67.3893L34.8408 67.7542C33.5497 68.7315 32.3727 69.2193 31.3084 69.2193C30.1874 69.2193 29.2101 68.7123 28.3716 67.7041C27.4883 66.652 27.0492 65.3678 27.0492 63.8456C27.0492 61.754 27.9082 59.0235 29.63 55.6612C29.811 55.3105 29.9494 55.1355 30.0486 55.1355C30.099 55.1407 30.1178 55.1912 30.1178 55.267C30.1178 55.6111 29.7483 56.7826 28.9968 58.7925C28.2519 60.8028 27.8825 62.3927 27.8825 63.559C27.8825 64.4409 28.0888 65.1556 28.5087 65.6994C28.96 66.2755 29.5799 66.5705 30.3558 66.5705C31.64 66.5705 32.8427 66.1506 33.9763 65.3121C35.3665 64.1094 36.7624 62.9066 38.1527 61.7105C40.5267 59.6976 42.8944 58.1326 45.2516 57.0213C44.9475 55.8136 44.7186 54.5973 44.5652 53.3704C44.5217 53.0389 44.4904 52.8374 44.4647 52.756C44.3968 52.5059 44.2528 52.2369 44.027 51.9419L44.791 50.0882C44.9103 49.781 45.0234 49.6317 45.1104 49.6317C45.1918 49.6317 45.3237 49.781 45.5178 50.0882L47.471 53.2142C47.7347 53.6328 47.8596 53.9396 47.8596 54.1341C47.8596 54.2715 47.797 54.3408 47.6599 54.3408C47.4206 54.3408 46.9954 54.1411 46.3824 53.7455C46.4879 54.4648 46.6725 55.3021 46.9378 56.2546L47.2393 56.118C48.5739 55.6546 49.7196 55.4236 50.6722 55.4236C51.6303 55.4236 52.3944 55.8244 52.9514 56.6385C53.5154 57.4457 53.7968 58.5166 53.7968 59.8376C53.7968 60.9398 53.5588 61.8489 53.0832 62.5625C52.6062 63.2761 51.9744 63.6334 51.1982 63.6334C50.1204 63.6334 49.0808 63.1077 48.0725 62.0678C47.321 61.285 46.7636 60.4451 46.3886 59.5495C44.5471 60.2833 42.4296 61.5922 40.0568 63.4706C38.7985 64.4987 37.5474 65.5263 36.2983 66.5542C36.1166 67.1025 35.869 67.7967 35.5546 68.638C34.8097 70.6478 34.4402 72.2377 34.4402 73.4025C34.4402 74.2985 34.6469 75.0132 35.0668 75.5443C35.5045 76.1204 36.1255 76.416 36.9136 76.416C38.3108 76.416 39.7202 75.7021 41.147 74.2859C41.5544 73.8001 41.9629 73.3152 42.3713 72.8304L42.3731 72.8283C42.8689 72.2398 43.3646 71.6514 43.8584 71.0611C45.0364 69.7335 46.5837 68.5495 48.4992 67.5099C49.6147 66.9003 51.5461 66.0169 54.2899 64.8612V64.8562C57.2458 63.6054 59.1881 62.6334 60.1149 61.9512C60.3838 61.7517 60.4773 61.482 60.3838 61.1371C59.8886 59.3268 57.8479 56.9153 54.2582 53.9043C50.9511 51.2354 47.6433 48.5736 44.3357 45.9121L44.312 45.8929L44.3104 45.8916L43.9638 45.6127C43.8441 45.5117 43.7815 45.1367 43.7815 44.4913C43.7815 43.6529 43.8698 42.7887 44.0511 41.8927C44.2448 40.8966 44.4828 40.2645 44.765 40.0081C46.7006 38.2596 50.833 35.9425 57.1582 33.0559C63.5652 30.1242 67.7986 28.6596 69.8469 28.6596C70.4539 28.6596 70.8731 28.779 71.0986 29.022C71.3307 29.2666 71.4434 29.68 71.4434 30.2686C71.4434 31.6155 70.6351 33.2939 69.0328 35.2987C68.7365 35.6345 68.4389 35.9702 68.1407 36.3068L68.1309 36.3179L68.1296 36.3194C67.8255 36.6625 67.5208 37.0064 67.2158 37.352C66.2522 38.4734 65.6001 39.3877 65.2627 40.0891C65.0373 40.5651 64.8928 40.8031 64.836 40.8031C64.7801 40.8031 64.8118 40.4833 64.9371 39.8512C65.0055 39.5005 65.2744 38.8934 65.7387 38.0342C66.1587 37.2393 66.471 36.7257 66.6839 36.4878C68.5 34.427 69.583 33.0684 69.9462 32.423C69.9847 32.3603 69.9964 32.2927 69.9964 32.2234C69.9964 31.8343 69.4895 31.6464 68.4691 31.6464C66.8534 31.6464 63.0199 33.0559 56.9711 35.8749C50.9274 38.6922 46.7874 41.0093 44.5588 42.8246C44.4143 42.9515 44.4327 43.0576 44.6272 43.1444C46.6054 44.3594 48.5543 45.6127 50.4706 46.9019C55.0798 50.0282 59.1563 53.1094 62.7134 56.1463C63.7906 57.0857 64.8619 58.0317 65.9382 58.9828C66.0197 59.0434 66.1011 59.1022 66.1825 59.159C66.0315 56.7844 65.9566 55.3714 65.9566 54.9216C65.9566 53.826 65.7883 52.9238 65.4497 52.2224C65.4497 51.7781 65.7625 50.8387 66.3957 49.4036C66.5331 49.0842 66.6838 49.0911 66.8404 49.4171C67.0223 49.8047 67.4409 50.8701 68.0918 52.611C68.7876 54.4268 69.1888 55.5412 69.3015 55.9611C69.3885 56.2805 69.4386 56.5185 69.4386 56.6747C69.4386 57.1761 68.9564 56.8758 67.9927 55.7736C67.8799 55.616 67.8229 55.6852 67.8229 55.9803C67.8229 56.0367 67.9206 57.4272 68.1179 60.15C68.6451 60.32 69.1682 60.4052 69.6866 60.4048V60.3981C70.1684 60.4841 70.636 60.4858 71.0902 60.4048ZM51.3478 60.2332C51.7869 60.2332 52.0123 60.1135 52.0123 59.8759C52.0123 59.5252 51.6985 59.218 51.0733 58.9557C50.6099 58.7667 49.8584 58.7612 48.8185 58.9421C49.3689 59.8011 50.2143 60.2332 51.3478 60.2332ZM83.8182 83.3248C83.8182 82.9499 83.5243 82.3737 82.9481 81.5905C82.3152 80.7505 81.7641 80.3372 81.3006 80.3372C80.95 80.3372 80.6051 80.5509 80.2669 80.9835C79.9296 81.4085 79.7601 81.816 79.7601 82.2034C79.7601 82.5299 79.9421 83.106 80.317 83.9202C80.6368 84.6333 80.8815 85.1159 81.0627 85.3606C81.5386 85.1351 82.0839 84.8161 82.6968 84.3961C83.4424 83.896 83.8182 83.5386 83.8182 83.3248Z" fill="white"/>
	<path d="M79.09 32.5382C79.4281 33.2396 79.5969 34.1404 79.5969 35.2374C79.5969 36.1764 79.9229 41.311 80.586 50.63C81.2506 59.9546 81.5825 65.1529 81.5825 66.2237C81.5825 67.4265 81.532 68.4786 81.4329 69.3863C81.3514 70.0442 81.3323 70.4694 81.3824 70.6639C81.4137 70.8514 81.5077 70.8201 81.6705 70.5633C81.77 70.3824 81.9085 70.0877 82.0769 69.6814C82.891 67.6645 83.2987 65.3404 83.2987 62.7108C83.2987 61.8532 82.9915 57.262 82.3775 48.9325C81.7644 40.6096 81.4642 36.3953 81.4642 36.2947C81.4642 36.0011 81.5198 35.9318 81.6326 36.0881C82.5977 37.1903 83.0785 37.4919 83.0785 36.9906C83.0785 36.8343 83.0298 36.5964 82.9414 36.277C82.8287 35.857 82.4276 34.7427 81.7331 32.9255C81.0808 31.1845 80.6622 30.1206 80.4803 29.7323C80.3237 29.407 80.173 29.4 80.0356 29.7194C79.4038 31.1535 79.09 32.0926 79.09 32.5382Z" fill="white"/>
	<path d="M44.0765 68.2449V66.2659C44.3767 66.372 44.9651 66.4847 45.8297 66.6044C46.6939 66.7241 47.1695 66.7606 47.2634 66.7171C47.3327 66.6858 47.3709 66.5923 47.3709 66.4357V63.9609C47.3709 63.8482 47.3396 63.7856 47.2826 63.7804C46.2183 63.6673 45.1665 63.5045 44.12 63.2978C43.9947 63.2734 43.9255 63.3479 43.9133 63.5288C43.8576 64.1119 43.8441 64.7942 43.8698 65.577C42.761 65.4396 41.7468 65.2834 40.8325 65.1136C40.7073 65.0944 40.638 65.1706 40.6258 65.346C40.4748 66.7728 40.487 67.6631 40.6572 68.0069C40.7006 68.1008 41.2389 68.2201 42.2729 68.3767C43.2989 68.5274 43.8698 68.5764 43.969 68.5274C44.0382 68.4894 44.0765 68.4011 44.0765 68.2449Z" fill="white"/>
	<path d="M52.0098 84.5091C52.4855 83.7698 52.7231 83.1119 52.7231 82.5357C52.7231 81.7529 52.4107 81.3657 51.791 81.3657C51.0392 81.3657 50.5691 81.8413 50.3625 82.7925C50.3311 82.987 50.3068 83.1063 50.2946 83.1498C50.3311 83.1623 50.3569 83.1745 50.3816 83.2003C50.4129 83.1867 50.5009 83.1376 50.6314 83.0493C50.8137 82.9244 51.0204 82.8617 51.2458 82.8617C51.6522 82.8617 51.8602 83.0806 51.8602 83.5196C51.8602 83.9886 51.2215 84.9099 49.9561 86.2936C49.6924 86.5747 49.5675 86.7448 49.5675 86.7883C49.5675 86.8005 49.5675 86.8071 49.5796 86.8071C49.6367 86.8071 49.8176 86.6944 50.1245 86.4811C50.8951 85.9359 51.5217 85.2798 52.0098 84.5091Z" fill="white"/>
	<path d="M62.3314 38.8158C62.807 38.0765 63.0447 37.4186 63.0447 36.8424C63.0447 36.0596 62.7322 35.6724 62.1126 35.6724C61.3607 35.6724 60.8907 36.148 60.684 37.0992C60.6527 37.2937 60.6284 37.413 60.6162 37.4565C60.6527 37.469 60.6785 37.4812 60.7032 37.507C60.7345 37.4934 60.8225 37.4443 60.953 37.356C61.1353 37.2311 61.342 37.1684 61.5674 37.1684C61.9738 37.1684 62.1818 37.3873 62.1818 37.8263C62.1818 38.2953 61.5431 39.2166 60.2777 40.6003C60.014 40.8814 59.889 41.0516 59.889 41.095C59.889 41.1072 59.889 41.1138 59.9012 41.1138C59.9583 41.1138 60.1392 41.0011 60.4461 40.7878C61.2167 40.2426 61.8433 39.5865 62.3314 38.8158Z" fill="white"/>
	<path d="M61.4328 91.7063C61.2994 92.5752 61.3501 93.2729 61.5847 93.7992C61.9033 94.5142 62.3464 94.7407 62.9123 94.4884C63.5991 94.1824 63.8348 93.5566 63.6363 92.6037C63.5858 92.4133 63.5594 92.2944 63.5528 92.2497C63.5144 92.2531 63.4859 92.2525 63.4529 92.239C63.4298 92.2642 63.3694 92.3448 63.2862 92.4786C63.1705 92.6669 63.0072 92.8082 62.8013 92.9C62.4301 93.0654 62.151 92.9503 61.9723 92.5492C61.7813 92.1208 61.9898 91.0193 62.5823 89.2404C62.7087 88.8762 62.7536 88.67 62.7358 88.6303C62.7309 88.6191 62.7282 88.6131 62.7171 88.6181C62.665 88.6413 62.5456 88.8179 62.3521 89.1376C61.8702 89.9493 61.565 90.8037 61.4328 91.7063Z" fill="white"/>
	<path d="M70.1016 41.715C70.5772 40.9757 70.8148 40.3178 70.8148 39.7416C70.8148 38.9588 70.5024 38.5716 69.8828 38.5716C69.1309 38.5716 68.6609 39.0472 68.4542 39.9984C68.4229 40.1929 68.3985 40.3122 68.3864 40.3557C68.4229 40.3682 68.4486 40.3804 68.4733 40.4062C68.5047 40.3926 68.5927 40.3435 68.7232 40.2552C68.9055 40.1303 69.1121 40.0676 69.3376 40.0676C69.744 40.0676 69.952 40.2865 69.952 40.7255C69.952 41.1945 69.3132 42.1158 68.0478 43.4995C67.7841 43.7806 67.6592 43.9507 67.6592 43.9942C67.6592 44.0064 67.6592 44.013 67.6714 44.013C67.7285 44.013 67.9094 43.9003 68.2162 43.687C68.9869 43.1418 69.6135 42.4857 70.1016 41.715Z" fill="white"/>
	<path d="M29.7186 50.2858C29.6122 50.7586 29.6135 51.1442 29.7225 51.4426C29.8705 51.8479 30.1055 51.9894 30.4264 51.8722C30.8157 51.73 30.9692 51.3949 30.8963 50.8632C30.8757 50.7566 30.8658 50.6902 30.8639 50.6654C30.8426 50.6658 30.8269 50.6644 30.8093 50.6557C30.7956 50.6686 30.7593 50.7107 30.7085 50.7811C30.6377 50.8803 30.5425 50.9518 30.4258 50.9944C30.2153 51.0713 30.0662 50.9973 29.9832 50.7699C29.8945 50.5271 30.0511 49.9292 30.4447 48.9734C30.5281 48.778 30.5606 48.6663 30.5523 48.6438C30.55 48.6375 30.5488 48.634 30.5425 48.6363C30.5129 48.6471 30.4406 48.7397 30.322 48.9082C30.026 49.3362 29.8257 49.7945 29.7186 50.2858Z" fill="white"/>
	<path d="M34.3824 54.5947C34.7503 54.0243 34.9337 53.5168 34.9337 53.0723C34.9337 52.4684 34.6916 52.1697 34.2135 52.1697C33.6338 52.1697 33.272 52.5366 33.1115 53.2704C33.0874 53.4204 33.0686 53.5128 33.0592 53.5463C33.0873 53.5557 33.1075 53.5651 33.1263 53.585C33.1504 53.5745 33.2186 53.5367 33.3203 53.4685C33.4596 53.3721 33.619 53.3238 33.793 53.3238C34.1075 53.3238 34.267 53.4926 34.267 53.8314C34.267 54.1932 33.7742 54.9039 32.798 55.9713C32.5946 56.1881 32.4982 56.3194 32.4982 56.3529C32.4982 56.3623 32.4982 56.3674 32.5076 56.3674C32.5516 56.3674 32.6923 56.2805 32.9282 56.1159C33.5224 55.6954 34.0058 55.1892 34.3824 54.5947Z" fill="white"/>
	<path d="M45.0048 88.3819C44.8234 88.5557 44.6385 88.642 44.4374 88.642C44.0035 88.642 43.786 88.4017 43.786 87.9249C43.786 87.4944 43.9871 86.9861 44.3938 86.3948C44.7489 85.8659 45.0835 85.5028 45.3994 85.3138C45.4627 85.2787 45.5019 85.2787 45.5175 85.3214C45.5372 85.3729 45.5216 85.4284 45.4627 85.4952C45.2221 85.716 44.9774 86.0155 44.7369 86.3948C44.4647 86.8003 44.3304 87.1007 44.3304 87.2933C44.4527 87.1914 44.5949 87.1436 44.7566 87.1436C45.1271 87.1436 45.3129 87.3053 45.3129 87.6366C45.3129 87.9361 45.2101 88.185 45.0048 88.3819Z" fill="white"/>
	<path d="M40.5566 39.0061C41.0326 38.2668 41.2716 37.6103 41.2716 37.0341C41.2716 36.2513 40.9578 35.8627 40.3381 35.8627C39.5863 35.8627 39.1162 36.3383 38.9096 37.2909C38.8782 37.484 38.8539 37.6037 38.8417 37.6472C38.8782 37.6593 38.904 37.6729 38.9287 37.6973C38.96 37.6851 39.048 37.635 39.1799 37.548C39.3608 37.4214 39.5675 37.3591 39.7929 37.3591C40.2007 37.3591 40.4073 37.579 40.4073 38.0166C40.4073 38.487 39.7686 39.4069 38.5032 40.7906C38.2395 41.0731 38.1146 41.2418 38.1146 41.2853C38.1146 41.2989 38.1146 41.3041 38.1267 41.3041C38.1838 41.3041 38.3647 41.1914 38.6716 40.9795C39.4422 40.4343 40.0688 39.7768 40.5566 39.0061Z" fill="white"/>
	<path d="M49.914 31.1223C50.2773 30.9006 50.5199 30.6651 50.6415 30.4141C50.8066 30.0731 50.7519 29.8376 50.482 29.7069C50.1545 29.5482 49.8494 29.6563 49.5584 30.0276C49.504 30.1051 49.4681 30.1521 49.4537 30.1685C49.467 30.1815 49.4754 30.1929 49.481 30.2087C49.4972 30.21 49.5461 30.2067 49.6219 30.1966C49.7274 30.1796 49.8306 30.1961 49.9288 30.2437C50.1064 30.3297 50.1501 30.4691 50.0577 30.6597C49.9585 30.8646 49.4862 31.1306 48.643 31.4664C48.4686 31.5338 48.3786 31.581 48.3694 31.5999C48.3665 31.6058 48.3654 31.6081 48.3707 31.6107C48.3956 31.6227 48.4982 31.6118 48.6765 31.5842C49.1273 31.5093 49.5389 31.355 49.914 31.1223Z" fill="white"/>
	<path d="M63.1661 69.0257C63.3868 69.0257 63.5896 68.931 63.7886 68.7404C64.0138 68.5244 64.1265 68.2513 64.1265 67.9228C64.1265 67.5594 63.9227 67.382 63.5163 67.382C63.3389 67.382 63.183 67.4344 63.0489 67.5462C63.0489 67.3349 63.1962 67.0054 63.4947 66.5605C63.7586 66.1445 64.027 65.816 64.2909 65.5737C64.3556 65.5004 64.3726 65.4396 64.351 65.3831C64.3339 65.3363 64.2909 65.3363 64.2215 65.3747C63.8749 65.5821 63.5079 65.9804 63.1183 66.5605C62.6722 67.2092 62.4516 67.7668 62.4516 68.2391C62.4516 68.7621 62.6903 69.0257 63.1661 69.0257Z" fill="white"/>
	<path d="M38.0127 73.8806C38.2138 73.8806 38.3987 73.7934 38.5802 73.6205C38.7857 73.4227 38.8885 73.1746 38.8885 72.8749C38.8885 72.5438 38.7027 72.3819 38.3319 72.3819C38.1702 72.3819 38.0282 72.429 37.9057 72.5317C37.9057 72.3383 38.04 72.0387 38.3124 71.6323C38.5528 71.2538 38.7975 70.9543 39.0381 70.7335C39.0973 70.6657 39.1126 70.611 39.0929 70.5597C39.0776 70.5161 39.0381 70.5161 38.9748 70.552C38.6591 70.7411 38.3242 71.104 37.9691 71.6323C37.5626 72.2237 37.3614 72.7329 37.3614 73.1626C37.3614 73.6403 37.5788 73.8806 38.0127 73.8806Z" fill="white"/>
	<path d="M74.2833 75.5396C74.3047 75.4918 74.3311 75.4569 74.3528 75.4307C74.378 75.4185 74.3874 75.4223 74.3874 75.4439C74.3958 75.4653 74.3958 75.505 74.3874 75.5612C74.179 76.7112 73.8336 77.2868 73.3575 77.2868C72.8468 77.2868 72.5961 76.8634 72.5961 76.0193C72.5961 74.9772 72.8946 73.8863 73.4955 72.7447C73.6476 72.463 73.7339 72.3167 73.7687 72.3119C73.7706 72.3119 73.7727 72.313 73.7743 72.3147C73.7749 72.3154 73.7762 72.317 73.7765 72.3178L73.7772 72.3205C73.7772 72.3767 73.7339 72.5373 73.6476 72.8048C73.258 73.9952 73.0636 74.8251 73.0636 75.3012C73.0636 75.9498 73.2364 76.2794 73.5914 76.2794C73.794 76.2794 74.0233 76.0325 74.2833 75.5396Z" fill="white"/>
	<path d="M31.7727 75.8784C31.804 75.797 31.8423 75.7465 31.8733 75.7221C31.898 75.703 31.9167 75.71 31.9237 75.7413C31.9359 75.7726 31.9359 75.8283 31.9237 75.9097C31.8475 76.5554 31.66 77.1316 31.3719 77.6451C31.0838 78.152 30.7711 78.4091 30.4329 78.4091C30.0564 78.4143 29.775 78.2268 29.5808 77.826C29.3933 77.4318 29.3049 76.8992 29.3307 76.2291C29.362 75.4149 29.6118 74.3698 30.0752 73.0922C30.4708 72.0026 30.8215 71.2385 31.1273 70.7998C31.3215 70.5361 31.4345 70.3986 31.4658 70.3934C31.478 70.4369 31.429 70.5862 31.3162 70.8499C30.6326 72.3654 30.2071 73.7679 30.0387 75.0454C30.0129 75.1895 30.0074 75.3401 30.0074 75.4842C30.0074 76.505 30.2575 76.9928 30.771 76.9493C31.0783 76.9113 31.4098 76.5554 31.7727 75.8784Z" fill="white"/>
	<path d="M33.0361 43.9055C33.4819 43.9055 33.9318 44.3372 34.3825 45.2001C34.7908 45.9918 35.0716 46.8742 35.2355 47.8491L35.2382 47.8671L35.2423 47.8942L35.2471 47.9246C35.2545 47.9718 35.2589 48.0004 35.2589 48.013C35.2782 48.0364 35.2873 48.0364 35.2964 48.013C35.3056 47.9947 35.329 47.9429 35.3626 47.8491C35.4796 47.0094 35.7096 45.9032 36.0475 44.5243C36.3701 43.7549 36.7223 43.3704 37.1019 43.3704C37.2994 43.3704 37.4917 43.5027 37.6881 43.7651C37.8569 43.9941 37.9413 44.1772 37.9413 44.3229C37.9413 44.4359 37.9129 44.5764 37.853 44.7543C37.7777 44.9935 37.6881 45.1104 37.5852 45.1104C37.5425 45.1104 37.4489 45.0221 37.3085 44.8387C37.1629 44.6556 37.0133 44.567 36.8627 44.567C36.5493 44.567 36.1921 45.6641 35.7941 47.8582C35.6669 48.5575 35.5265 49.0501 35.3717 49.3359C35.2639 49.5324 35.1703 49.6311 35.0951 49.6311C35.0247 49.6311 34.9922 49.5425 34.9922 49.3646C34.9922 49.0733 34.809 48.3835 34.4476 47.3007C34.0733 46.1802 33.8239 45.6213 33.6976 45.6213C33.6041 45.6213 33.5431 45.65 33.5196 45.711C33.491 45.767 33.4157 45.7995 33.2896 45.7995C33.144 45.7995 32.9569 45.6917 32.7216 45.4809C32.4877 45.2704 32.3746 45.0964 32.3746 44.97C32.3746 44.9143 32.4695 44.7217 32.6656 44.3932C32.8631 44.0644 32.9843 43.9055 33.0361 43.9055Z" fill="white"/>
	<path d="M92.6111 46.4331C92.6111 45.3243 92.4358 44.4288 92.0973 43.7517C92.0973 43.2952 92.41 42.3492 93.0488 40.9155C93.1807 40.5961 93.3313 40.6027 93.4875 40.9276C93.6699 41.3163 94.0884 42.3806 94.7463 44.1215C95.4352 45.9384 95.8429 47.0583 95.9543 47.4904C96.0427 47.7924 96.0931 48.0301 96.0931 48.1863C96.0931 48.7057 95.6036 48.4051 94.6402 47.2841C94.5275 47.1467 94.4704 47.2215 94.4704 47.504C94.4704 47.6101 94.8277 52.5516 95.5357 62.3274C96.2424 72.1085 96.6 77.432 96.6 78.2896C96.6 80.9519 96.1936 83.2746 95.3917 85.2546C95.2219 85.6679 95.0845 85.9615 94.9784 86.1435C94.8208 86.4003 94.7272 86.4316 94.6903 86.2441C94.6454 86.0496 94.6645 85.623 94.7463 84.9665C94.8468 84.0574 94.9025 83.0001 94.9025 81.7904C94.9025 80.7264 94.5205 74.8021 93.7568 64.0301C92.9928 53.253 92.6111 47.3847 92.6111 46.4331Z" fill="white"/>
	<path d="M50.8894 76.3869C50.839 76.3556 50.839 76.2863 50.8894 76.1858L51.9725 73.957C52.0417 73.8182 52.1165 73.7559 52.1927 73.7559C52.3055 73.7559 52.7932 74.0506 53.6578 74.6393C54.5154 75.2276 54.9476 75.5728 54.9476 75.6719C54.9476 76.0609 54.5655 76.8625 53.8085 78.0899C53.7149 78.2462 53.6195 78.2841 53.5204 78.2093C52.6683 77.5569 51.7919 76.9564 50.8894 76.3869Z" fill="white"/>
	<path d="M80.9938 73.9445L81.8584 72.159C81.9276 72.0215 82.0024 71.9589 82.0838 71.9589C82.1965 71.9589 82.6791 72.2525 83.5419 72.8426C84.401 73.4309 84.8331 73.7747 84.8331 73.8752C84.8331 74.2639 84.4514 75.0644 83.6929 76.2863C83.6046 76.4373 83.5054 76.4738 83.4049 76.4046C82.66 75.8542 81.8149 75.2711 80.8741 74.6581C80.5547 75.3716 80.2492 75.9791 79.942 76.4808C79.8537 76.637 79.7545 76.6749 79.6539 76.5988C78.8015 75.9478 77.9251 75.3473 77.0226 74.7763C76.9736 74.745 76.9736 74.6772 77.0226 74.5766L78.1071 72.3465C78.1753 72.209 78.2511 72.1468 78.3259 72.1398C78.4321 72.1468 78.845 72.3844 79.5656 72.8736C80.2927 73.3617 80.7683 73.719 80.9938 73.9445Z" fill="white"/>
	<path fill-rule="evenodd" clip-rule="evenodd" d="M77.7908 65.99C76.809 65.4797 76.3149 64.9451 76.3149 64.3853C76.3149 63.7133 76.6315 63.0959 77.2472 62.5365C77.8718 61.9771 78.3907 61.7677 78.8041 61.9208C79.1522 62.042 79.3229 62.4153 79.3229 63.0396C79.3229 63.5989 79.2085 64.2308 78.9748 64.9293C79.4689 65.2122 79.7859 65.4554 79.9071 65.6504C79.9071 65.9179 79.6873 66.3629 79.2423 66.9961C79.1207 66.8011 78.8199 66.5583 78.3416 66.266C77.7908 67.0281 77.094 67.7262 76.2514 68.349C75.2943 69.0548 74.4094 69.5894 73.6072 69.9465C73.4451 70.0276 72.5128 70.3847 70.8275 71.0094C70.56 71.1058 70.3893 71.1553 70.2997 71.1553C70.2592 71.1553 70.2434 71.1395 70.2434 71.122C70.2434 71.0567 70.3893 70.9283 70.6816 70.7418C71.9287 70.0028 73.178 69.257 74.4341 68.5039C75.9348 67.596 77.0535 66.7605 77.7908 65.99ZM78.3907 64.6213C78.4875 64.3204 78.5051 64.0124 78.4555 63.7048C78.3907 63.3634 78.2357 63.2017 77.993 63.2017C77.8804 63.2017 77.7187 63.2593 77.5232 63.3634C77.321 63.4778 77.2156 63.5832 77.2156 63.689C77.2156 63.9318 77.6129 64.2484 78.3907 64.6213Z" fill="white"/>
	<path fill-rule="evenodd" clip-rule="evenodd" d="M76.4411 80.836C76.4411 81.5918 76.1832 82.3142 75.667 82.9964C75.1174 83.7413 74.4673 84.1134 73.7334 84.1134C72.9685 84.1134 72.5849 83.7413 72.5849 82.9964C72.5849 82.4601 72.8858 81.6728 73.4847 80.65C74.0946 79.6157 74.6126 79.111 75.0456 79.111C75.4183 79.111 75.7502 79.2746 76.0282 79.5956C76.2975 79.9276 76.4411 80.3405 76.4411 80.836ZM75.7795 81.6842C75.7795 80.9905 75.2948 80.6408 74.3439 80.6408C74.2089 80.6408 73.9826 80.8561 73.6616 81.2914C73.3412 81.7354 73.1861 82.0363 73.1861 82.2109C73.2981 82.4601 73.6507 82.5835 74.2606 82.5835C75.2747 82.5835 75.7795 82.2826 75.7795 81.6842Z" fill="white"/>
	<path d="M71.4115 45.0886C71.8683 45.0886 72.1007 45.3089 72.1007 45.7587C72.1007 45.9978 72.0381 46.2479 71.9118 46.5047C71.8301 46.68 71.6238 46.9615 71.2918 47.3623C70.8162 47.9075 70.5038 48.2892 70.3406 48.5149C70.0717 48.8723 69.9137 49.0532 69.8703 49.0532C69.865 49.0532 69.8581 49.0407 69.8581 49.0285C69.8581 48.985 69.9016 48.8653 69.9833 48.659C70.1653 48.2077 70.4534 47.7565 70.8667 47.2875C71.0977 47.0307 71.3423 46.767 71.5869 46.5047C71.4933 46.2792 71.3489 46.1665 71.1426 46.1665C70.9986 46.1665 70.8162 46.2166 70.6096 46.3227C68.537 47.3745 66.5393 47.9075 64.6163 47.9075C63.5576 47.9075 62.5994 47.6765 61.7418 47.2183C61.8671 47.6191 61.8236 48.095 61.61 48.659C61.5286 48.8778 61.4729 48.9972 61.4346 49.0027C61.4158 49.0027 61.4037 48.8653 61.4037 48.5964C61.4037 48.095 61.3219 47.6626 61.1657 47.2997C61.1465 47.2562 60.8842 46.8609 60.3895 46.1282C60.4712 45.6213 60.5961 45.3715 60.7649 45.3715C60.7837 45.3715 60.9089 45.4585 61.1465 45.6404C61.4294 45.8715 61.7175 46.0604 62.0111 46.2166C62.8823 46.6734 63.8401 46.9058 64.8731 46.9058C65.9631 46.9058 67.0149 46.7493 68.0291 46.4354C68.624 46.2479 69.3324 45.9529 70.1517 45.5521C70.7975 45.2396 71.2174 45.0886 71.4115 45.0886Z" fill="white"/>
	<path d="M47.8709 79.5046C47.8709 79.7178 47.602 80.1935 47.0689 80.9453C46.4615 81.7852 45.8867 82.4048 45.3419 82.7935C44.9912 83.0366 43.8319 83.4253 41.8599 83.9461C41.5092 84.0331 41.3325 84.0641 41.3325 84.0453C41.3582 84.0084 41.4765 83.9078 41.6967 83.7381C41.9535 83.5383 42.6549 83.1442 43.8006 82.5367C44.9028 81.9536 45.5482 81.5785 45.7357 81.4153C45.767 81.3774 45.7862 81.3461 45.7862 81.3148C45.7862 81.0525 44.8023 80.9262 42.849 80.9262C42.8424 80.9262 42.4674 80.9397 41.7211 80.9711C41.3652 80.9898 41.1898 80.9641 41.1898 80.9018C41.1898 80.8514 41.2333 80.7508 41.3203 80.5946L42.0161 79.4176C42.2228 79.0725 42.5923 78.8602 43.1305 78.7666C43.325 78.7353 43.7762 78.7218 44.4895 78.7218C46.7443 78.7218 47.8709 78.9785 47.8709 79.5046Z" fill="white"/>
	<path d="M58.4806 40.9005C58.4806 40.7252 58.3678 40.5676 58.1354 40.4371C57.9044 40.3052 57.5471 40.2426 57.0645 40.2426C55.9502 40.2426 54.8793 40.5676 53.8515 41.2321C53.4194 41.508 53.2006 41.7647 53.2006 42.0027C53.2006 42.2964 53.5269 42.6279 54.1657 43.0044C55.1604 43.4608 55.9432 43.7938 56.5141 43.9939C57.3404 44.4761 57.7033 44.9082 57.6042 45.2958C57.3283 45.2276 56.6147 44.9952 55.462 44.5944C54.1657 44.1501 53.3637 43.8307 53.0443 43.6431C52.2928 43.211 51.8172 42.8047 51.6106 42.4348C51.5792 42.5531 51.5657 42.685 51.5657 42.8221C51.5657 43.5739 51.9178 44.1501 52.6122 44.5578C53.4577 45.0456 54.9102 45.5404 56.9897 46.0417C57.1216 46.073 57.3596 45.9412 57.7033 45.6475C58.085 45.3215 58.2916 44.9952 58.3243 44.6706C58.38 44.1309 58.0485 43.6553 57.3335 43.2354C57.203 43.1676 56.8523 43.0232 56.2695 42.8168C55.693 42.6102 55.2174 42.3969 54.8546 42.1833C54.3723 41.9088 54.1344 41.7077 54.1274 41.5758C54.1344 41.501 54.2022 41.4387 54.3532 41.3817C54.7975 41.2063 55.3862 41.1002 56.113 41.0623C56.7953 41.0188 57.2152 41.0446 57.3717 41.1315C57.5972 41.3883 57.7099 41.5706 57.7033 41.6833C57.7847 41.7268 57.9858 41.5828 58.3108 41.2564C58.4235 41.1437 58.4806 41.0254 58.4806 40.9005Z" fill="white"/>
	<path d="M59.7951 67.9825C58.3868 68.5069 56.9932 69.0254 55.6144 69.5383L55.5933 69.5462C52.7486 70.6045 49.9673 71.6392 47.2513 72.6537C47.0568 73.0611 46.9197 73.4309 46.8379 73.7695C47.3083 73.4866 49.5684 72.5977 53.6196 71.088C57.591 69.6038 59.601 68.8401 59.6445 68.7897C59.7381 68.7205 59.8577 68.5016 60.0018 68.1457C60.0522 68.0326 60.0574 67.9634 60.0265 67.9376C60.0018 67.9199 59.927 67.9376 59.7951 67.9825Z" fill="white"/>
	<path d="M42.4706 49.3012C43.0662 48.8978 43.3936 48.6239 43.4521 48.4679C43.5964 48.0833 42.8431 47.5865 41.1943 46.968C40.6715 46.7719 40.3391 46.6585 40.1883 46.628C39.768 46.5484 39.4403 46.6037 39.1949 46.7983L38.3632 47.4681C38.2568 47.5585 38.1964 47.6197 38.1826 47.6563C38.1654 47.7021 38.2866 47.769 38.553 47.8533C39.1063 48.0347 39.3853 48.1281 39.3891 48.1295C40.8183 48.6657 41.5031 49.0279 41.4312 49.2197C41.4226 49.2426 41.4 49.2603 41.3667 49.2794C41.1838 49.3469 40.61 49.4445 39.6441 49.5685C38.6398 49.6984 38.0177 49.7939 37.7762 49.8699C37.5686 49.9336 37.4545 49.9747 37.4256 49.9946C37.4205 50.0083 37.5573 50.0336 37.8376 50.0661C39.4233 50.2269 40.3765 50.2603 40.6994 50.1786C41.2047 50.044 41.7959 49.7489 42.4706 49.3012Z" fill="white"/>
	<path d="M41.9377 56.1985C41.925 55.475 41.8154 54.9972 41.6177 54.7551C41.2021 54.2464 40.4288 54.3625 39.2895 55.0957C39.1006 55.2299 39.023 55.3134 39.0539 55.3513C39.0736 55.3754 39.2557 55.3811 39.5974 55.3713C39.9404 55.3604 40.1465 55.3982 40.2224 55.4912C40.3752 55.6782 40.4329 55.9492 40.3967 56.3112C39.8486 55.9424 39.4323 55.7238 39.1357 55.6658C38.5329 55.5478 37.898 55.7569 37.2471 56.2886C37.0481 56.4512 36.4037 57.2061 35.3063 58.5563C34.208 59.9082 33.1975 60.9719 32.2611 61.7369C31.696 62.1985 31.433 62.4558 31.4682 62.4989C31.4999 62.5131 31.6114 62.4738 31.8161 62.3807C32.3968 62.0814 32.926 61.741 33.4037 61.3508C35.0275 60.0243 36.4427 58.4037 37.6536 56.4952C38.0317 56.5159 38.503 56.7006 39.0645 57.0584L39.1129 57.0934L39.1146 57.0947C39.5267 57.3932 39.9396 57.6924 40.3531 57.9793C40.4125 58.014 40.6254 57.9836 40.9953 57.879C41.3629 57.7849 41.576 57.7027 41.6386 57.6423C41.8525 57.3959 41.9575 56.9179 41.9377 56.1985Z" fill="white"/>
	<path d="M99.3713 54.3987C99.9409 53.5154 100.229 52.727 100.229 52.0312C100.229 51.0921 99.8539 50.6287 99.1079 50.6287C98.212 50.6287 97.6428 51.1982 97.3927 52.3384C97.3548 52.5694 97.3301 52.7134 97.3113 52.7705C97.3548 52.7827 97.3857 52.8018 97.417 52.8262C97.4553 52.814 97.5559 52.7513 97.7176 52.6456C97.9375 52.4946 98.1811 52.4198 98.4514 52.4198C98.9462 52.4198 99.1893 52.6821 99.1893 53.2148C99.1893 53.7721 98.4257 54.8813 96.9035 56.5405C96.5977 56.8791 96.4401 57.0788 96.4401 57.1289C96.4401 57.1414 96.4467 57.1536 96.4589 57.1536C96.5285 57.1536 96.7417 57.0231 97.1098 56.766C98.0315 56.115 98.7885 55.3256 99.3713 54.3987Z" fill="white"/>
	<path d="M76.4801 94.2957C75.9784 93.5439 75.4089 93.1688 74.7771 93.1688C74.7078 93.1688 74.5447 93.381 74.2823 93.8198C74.0186 94.2575 73.8937 94.5145 73.8937 94.5904C73.8937 94.7591 74.0447 94.9902 74.3571 95.2727C74.6696 95.5541 74.9211 95.6982 75.1156 95.6982C75.284 95.6982 75.3845 95.6547 75.4214 95.5799C75.4524 95.4985 75.5341 95.4602 75.659 95.4602C75.8414 95.4602 76.1416 95.9984 76.5737 97.0829C77.0058 98.1663 77.2194 98.8921 77.2194 99.2685C77.2194 99.5061 77.2629 99.6244 77.3565 99.6244C77.4571 99.6244 77.5823 99.494 77.7264 99.2302C77.9327 98.8486 78.1202 98.1907 78.2903 97.2582C78.672 95.122 79.092 94.0511 79.5418 94.0511C79.7485 94.0511 79.9496 94.1705 80.1371 94.4151C80.3316 94.6586 80.4565 94.7835 80.5136 94.7835C80.651 94.7835 80.7707 94.6217 80.8698 94.3079C80.9512 94.0699 80.9892 93.8758 80.9892 93.7262C80.9892 93.5317 80.8764 93.2871 80.651 92.9799C80.3886 92.6295 80.1319 92.4542 79.8682 92.4542C79.3612 92.4542 78.8909 92.9677 78.4587 94.0007C78.0646 95.4358 77.8144 96.5189 77.7139 97.2447C77.6948 97.2927 77.6795 97.3333 77.667 97.3662C77.6468 97.4198 77.6342 97.4531 77.6258 97.4649C77.6133 97.5014 77.6011 97.5014 77.5768 97.4649C77.5768 97.4526 77.5712 97.4172 77.5621 97.3599L77.5549 97.3147L77.549 97.277L77.5441 97.2447C77.3374 96.0297 76.987 95.0472 76.4801 94.2957Z" fill="white"/>
	<path d="M99.0846 62.8845C98.6525 62.0516 98.2204 61.6383 97.7883 61.6383C97.7378 61.6383 97.6195 61.7948 97.4306 62.1072C97.2501 62.4211 97.1561 62.6086 97.1561 62.666C97.1561 62.7839 97.2688 62.9471 97.4877 63.1538C97.7135 63.3535 97.894 63.461 98.0329 63.461C98.1578 63.461 98.227 63.4297 98.2517 63.3726C98.2774 63.317 98.3331 63.2909 98.4271 63.2909C98.5464 63.2909 98.7899 63.8239 99.1472 64.9014C99.4979 65.9465 99.6733 66.6044 99.6733 66.8856C99.6733 67.0557 99.7043 67.1427 99.7669 67.1427C99.8431 67.1427 99.9301 67.0487 100.036 66.8612C100.187 66.5801 100.319 66.1097 100.444 65.4396C100.826 63.3291 101.169 62.277 101.471 62.277C101.615 62.277 101.759 62.364 101.897 62.5341C102.034 62.7095 102.122 62.7965 102.166 62.7965C102.266 62.7965 102.348 62.6834 102.423 62.4524C102.478 62.2826 102.511 62.1452 102.511 62.0394C102.511 61.9006 102.43 61.72 102.266 61.4998C102.079 61.2496 101.89 61.1247 101.702 61.1247C101.333 61.1247 100.994 61.4942 100.689 62.2335C100.362 63.5546 100.143 64.6189 100.024 65.4274L100.014 65.4556C100.006 65.4778 99.9989 65.4975 99.993 65.5145C99.9798 65.552 99.9714 65.5762 99.968 65.5837C99.9544 65.6084 99.9422 65.6084 99.9301 65.5837C99.9301 65.5826 99.93 65.5813 99.9298 65.5797L99.9291 65.5742C99.9281 65.5663 99.9261 65.5546 99.9235 65.5396C99.9188 65.5125 99.9122 65.4739 99.9057 65.4274C99.7478 64.487 99.4733 63.6416 99.0846 62.8845Z" fill="white"/>
	<path d="M100.435 75.6241C100.096 75.9557 99.7388 76.1188 99.3568 76.1188C98.5305 76.1188 98.1175 75.662 98.1175 74.7529C98.1175 73.9332 98.4995 72.9629 99.2754 71.8349C99.9521 70.8333 100.591 70.1444 101.192 69.7815C101.311 69.7119 101.386 69.7189 101.417 69.8003C101.455 69.8942 101.424 70.0004 101.311 70.1253C100.853 70.5452 100.39 71.1147 99.9264 71.8349C99.4142 72.6122 99.1571 73.1817 99.1505 73.5516C99.3829 73.3571 99.6574 73.2631 99.9712 73.2631C100.673 73.2631 101.029 73.5759 101.029 74.2025C101.029 74.7717 100.829 75.2491 100.435 75.6241Z" fill="white"/>
	<path d="M52.6693 96.7419C53.1449 96.0026 53.3829 95.3447 53.3829 94.7685C53.3829 93.9857 53.0701 93.5971 52.4504 93.5971C51.6989 93.5971 51.2285 94.0741 51.0219 95.0253C50.9909 95.2198 50.9662 95.3381 50.9526 95.383C50.9909 95.3952 51.0153 95.4073 51.041 95.4331C51.0723 95.4195 51.1593 95.3704 51.2912 95.2824C51.4735 95.1572 51.6798 95.0949 51.9056 95.0949C52.312 95.0949 52.5183 95.3134 52.5183 95.7525C52.5183 96.2215 51.8798 97.1428 50.6159 98.5264C50.3521 98.8075 50.2269 98.9777 50.2269 99.0212C50.2269 99.0333 50.2269 99.04 50.2391 99.04C50.2965 99.04 50.477 98.9272 50.7843 98.7139C51.5549 98.1688 52.1815 97.5112 52.6693 96.7419Z" fill="white"/>
	<path d="M70.6407 100.217C70.6652 100.165 70.6854 100.131 70.7099 100.118C70.7232 100.101 70.7337 100.104 70.7403 100.128C70.7506 100.148 70.7506 100.186 70.7403 100.237C70.689 100.662 70.5693 101.042 70.3806 101.374C70.1889 101.71 69.9839 101.877 69.7609 101.877C69.518 101.885 69.3301 101.757 69.203 101.497C69.0767 101.237 69.0218 100.888 69.0387 100.45C69.0596 99.9088 69.2683 99.1109 69.6622 98.0632C70.004 97.1426 70.2989 96.4917 70.5522 96.1046C70.6652 95.9338 70.7365 95.8446 70.7744 95.838C70.7812 95.8653 70.7506 95.9681 70.6757 96.1358C70.1168 97.379 69.7581 98.382 69.593 99.1451C69.5247 99.4497 69.4943 99.7276 69.4943 99.9706C69.4943 100.313 69.5559 100.569 69.6822 100.741C69.778 100.882 69.8777 100.939 69.9839 100.919C70.1994 100.874 70.4185 100.642 70.6407 100.217Z" fill="white"/>
	<path fill-rule="evenodd" clip-rule="evenodd" d="M78.0497 14.5645L64.78 0L51.5103 14.5645L32.7361 8.58613L28.5265 27.8343L9.27839 32.0439L15.2568 50.8181L0.692261 64.0878L15.2568 77.3575L9.27839 96.1316L28.5265 100.341L32.7361 119.589L51.5103 113.611L64.78 128.176L78.0497 113.611L96.8238 119.589L101.033 100.341L120.282 96.1316L114.303 77.3575L128.868 64.0878L114.303 50.8181L120.282 32.0439L101.033 27.8343L96.8238 8.58613L78.0497 14.5645ZM38.3734 18.3502L53.8447 23.2768L64.78 11.2745L75.7152 23.2768L91.1866 18.3502L94.6556 34.2121L110.518 37.6811L105.591 53.1525L117.593 64.0878L105.591 75.023L110.518 90.4944L94.6556 93.9634L91.1866 109.825L75.7152 104.899L64.78 116.901L53.8447 104.899L38.3734 109.825L34.9043 93.9634L19.0424 90.4944L23.9691 75.023L11.9668 64.0878L23.9691 53.1525L19.0424 37.6811L34.9043 34.2121L38.3734 18.3502Z" fill="white"/>
</svg>
